<?xml version="1.0" encoding="utf-8"?>
<!-- Generator: Adobe Illustrator 19.1.0, SVG Export Plug-In . SVG Version: 6.00 Build 0)  -->
<svg version="1.1" id="Capa_1" xmlns="http://www.w3.org/2000/svg" xmlns:xlink="http://www.w3.org/1999/xlink" x="0px" y="0px"
	 viewBox="-281 372.4 48.6 48.6" style="enable-background:new -281 372.4 48.6 48.6;" xml:space="preserve">
<style type="text/css">
	.st0{fill:#3DB6E4;}
</style>
<g>
	<g>
		<polygon class="st0" points="-245.6,383.2 -245.5,383.6 -246.1,383.7 -246.1,384.4 -245.5,384.4 -244.6,384.3 -244.2,383.8 
			-244.7,383.6 -244.9,383.3 -245.3,382.7 -245.5,381.8 -246.2,382 -246.4,382.3 -246.4,382.6 -246.1,382.9 		"/>
		<polygon class="st0" points="-246.2,383.5 -246.2,383 -246.6,382.8 -247.2,383 -247.6,383.7 -247.6,384.1 -247.1,384.1 		"/>
		<path class="st0" d="M-258.5,385.5l-0.1,0.3h-0.6v0.3h0.2c0,0,0,0.1,0,0.2l0.4,0l0.2-0.2l0.1-0.3l0.3,0l0.1-0.3l-0.3-0.1
			L-258.5,385.5z"/>
		<polygon class="st0" points="-260.2,386.1 -260.2,386.5 -259.8,386.4 -259.7,386.1 -260,385.9 		"/>
		<path class="st0" d="M-232.4,396.4c0-0.7,0-1.4-0.1-2.1c-0.2-2.3-0.8-4.5-1.6-6.6c-0.1-0.2-0.1-0.3-0.2-0.5c-1.1-2.6-2.7-5-4.6-7
			c-0.1-0.1-0.3-0.3-0.4-0.4c-0.4-0.4-0.7-0.7-1.1-1.1c-4.3-3.9-10.1-6.3-16.4-6.3c-6.3,0-12.1,2.4-16.5,6.4c-1,0.9-1.9,1.9-2.8,3
			c-3.2,4.1-5.1,9.3-5.1,14.8c0,13.4,10.9,24.3,24.3,24.3c9.4,0,17.6-5.4,21.6-13.3c0.9-1.7,1.5-3.5,2-5.4c0.1-0.5,0.2-1,0.3-1.4
			c0.2-1.4,0.4-2.8,0.4-4.3C-232.4,396.6-232.4,396.5-232.4,396.4z M-237,386.7l0.1-0.2c0.2,0.4,0.4,0.7,0.5,1.1l-0.2,0l-0.4,0.1
			V386.7z M-240.5,382.5l0-1.1c0.4,0.4,0.8,0.8,1.1,1.3l-0.4,0.7l-1.5,0l-0.1-0.3L-240.5,382.5z M-269.8,379.8L-269.8,379.8l0.5,0
			l0-0.2h0.8v0.3l-0.2,0.3h-1.1L-269.8,379.8L-269.8,379.8z M-269,380.9c0,0,0.5-0.1,0.5-0.1s0,0.5,0,0.5l-1.1,0.1l-0.2-0.3
			L-269,380.9z M-235.4,390.5h-1.8l-1.1-0.8l-1.1,0.1v0.7h-0.4l-0.4-0.3l-2-0.5v-1.3l-2.5,0.2l-0.8,0.4h-1l-0.5,0l-1.2,0.7v1.3
			l-2.5,1.8l0.2,0.8h0.5l-0.1,0.7l-0.4,0.1l0,1.9l2.1,2.4h0.9l0.1-0.1h1.7l0.5-0.4h0.9l0.5,0.5l1.4,0.1l-0.2,1.9l1.6,2.8l-0.8,1.6
			l0.1,0.7l0.6,0.6v1.8l0.9,1.1v1.5h0.7c-4.1,5-10.3,8.3-17.3,8.3c-12.3,0-22.3-10-22.3-22.3c0-3.1,0.6-6,1.8-8.7v-0.7l0.8-1
			c0.3-0.5,0.6-1,0.9-1.5l0,0.4l-0.9,1.1c-0.3,0.5-0.6,1.1-0.8,1.7v1.3l0.9,0.4v1.8l0.9,1.5l0.7,0.1l0.1-0.5l-0.9-1.3l-0.2-1.3h0.5
			l0.2,1.3l1.2,1.8l-0.3,0.6l0.8,1.2l1.9,0.5V395l0.8,0.1l-0.1,0.6l0.6,0.1l0.9,0.3l1.3,1.5l1.7,0.1l0.2,1.4l-1.2,0.8l-0.1,1.2
			l-0.2,0.8l1.7,2.1l0.1,0.7c0,0,0.6,0.2,0.7,0.2c0.1,0,1.4,1,1.4,1v3.8l0.5,0.1l-0.3,1.8l0.8,1l-0.1,1.7l1,1.8l1.3,1.2l1.3,0
			l0.1-0.4l-1-0.8l0.1-0.4l0.2-0.5l0-0.5l-0.7,0l-0.3-0.4l0.5-0.5l0.1-0.4l-0.6-0.2l0-0.4l0.9-0.1l1.3-0.6l0.4-0.8l1.4-1.8l-0.3-1.4
			l0.4-0.7l1.3,0l0.9-0.7l0.3-2.7l1-1.2l0.2-0.8l-0.9-0.3l-0.6-0.9l-2,0l-1.6-0.6l-0.1-1.1l-0.5-0.9l-1.4,0l-0.8-1.3l-0.7-0.4l0,0.4
			l-1.3,0.1l-0.5-0.7l-1.4-0.3l-1.1,1.3l-1.8-0.3l-0.1-2l-1.3-0.2l0.5-1l-0.1-0.6l-1.7,1.1l-1.1-0.1l-0.4-0.8l0.2-0.9l0.6-1.1
			l1.4-0.7l2.6,0l0,0.8l0.9,0.4l-0.1-1.4l0.7-0.7l1.4-0.9l0.1-0.6l1.4-1.4l1.5-0.8l-0.1-0.1l1-0.9l0.4,0.1l0.2,0.2l0.4-0.4l0.1,0
			l-0.4-0.1l-0.4-0.1v-0.4l0.2-0.2h0.5l0.2,0.1l0.2,0.4l0.2,0v0l0.1,0l0.7-0.1l0.1-0.3l0.4,0.1v0.4l-0.4,0.2h0l0.1,0.4l1.2,0.4
			c0,0,0,0,0,0l0.3,0l0-0.5l-1-0.4l-0.1-0.3l0.8-0.3l0-0.8l-0.9-0.5l-0.1-1.3l-1.2,0.6h-0.4l0.1-1l-1.6-0.4l-0.7,0.5v1.5l-1.2,0.4
			l-0.5,1l-0.5,0.1v-1.3l-1.1-0.2l-0.6-0.4l-0.2-0.8l2-1.2l1-0.3l0.1,0.7l0.5,0l0-0.3l0.6-0.1l0-0.1l-0.2-0.1l-0.1-0.3l0.7-0.1
			l0.4-0.4l0,0l0,0l0.1-0.1l1.5-0.2l0.6,0.6l-1.7,0.9l2.2,0.5l0.3-0.7h0.9l0.3-0.6l-0.7-0.2v-0.8l-2.1-0.9l-1.4,0.2l-0.8,0.4l0.1,1
			l-0.9-0.1l-0.1-0.6l0.8-0.7l-1.5-0.1l-0.4,0.1l-0.2,0.5l0.6,0.1l-0.1,0.6l-0.9,0.1l-0.1,0.4l-1.4,0c0,0,0-0.8-0.1-0.8s1.1,0,1.1,0
			l0.8-0.8l-0.4-0.2l-0.6,0.6l-1-0.1l-0.6-0.8h-1.3l-1.3,1h1.2l0.1,0.4l-0.3,0.3l1.3,0l0.2,0.5l-1.5-0.1l-0.1-0.4l-0.9-0.2l-0.5-0.3
			l-1.1,0c3.7-2.7,8.2-4.3,13.1-4.3c5.6,0,10.8,2.1,14.7,5.6l-0.3,0.5l-1,0.4l-0.4,0.5l0.1,0.5l0.5,0.1l0.3,0.8l0.9-0.4l0.2,1.1
			h-0.3l-0.8-0.1l-0.8,0.1l-0.8,1.1l-1.2,0.2l-0.2,1l0.5,0.1l-0.1,0.6l-1.1-0.2l-1.1,0.2l-0.2,0.6l0.2,1.2l0.6,0.3l1,0l0.7-0.1
			l0.2-0.6l1.1-1.4l0.7,0.1l0.7-0.6l0.1,0.5l1.7,1.2l-0.2,0.3l-0.8,0l0.3,0.4l0.5,0.1l0.6-0.2l0-0.7l0.3-0.1l-0.2-0.2l-1.2-0.6
			l-0.3-0.9h1l0.3,0.3l0.8,0.7l0,0.9l0.9,0.9l0.3-1.3l0.6-0.3l0.1,1l0.6,0.6l1.2,0c0.2,0.6,0.4,1.2,0.6,1.8L-235.4,390.5z
			 M-267.7,383.4l0.6-0.3l0.5,0.1l-0.2,0.7l-0.6,0.2L-267.7,383.4z M-264.6,385.1v0.5h-1.3l-0.5-0.1l0.1-0.3l0.6-0.3h0.9v0.3H-264.6
			z M-264,385.7v0.4l-0.3,0.2l-0.4,0.1c0,0,0-0.7,0-0.7H-264z M-264.4,385.5V385l0.5,0.4L-264.4,385.5z M-264.2,386.6v0.4l-0.3,0.3
			h-0.7l0.1-0.5l0.3,0l0.1-0.2L-264.2,386.6z M-266,385.7h0.7l-0.9,1.3l-0.4-0.2l0.1-0.6L-266,385.7z M-262.9,386.5v0.4h-0.7
			l-0.2-0.3v-0.4h0.1L-262.9,386.5z M-263.6,385.9l0.2-0.2l0.3,0.2l-0.3,0.2L-263.6,385.9z M-235,391.6L-235,391.6
			c0.1,0,0.1,0.2,0.2,0.3L-235,391.6z"/>
		<path class="st0" d="M-277.2,387.3v0.7c0.2-0.6,0.5-1.1,0.8-1.7L-277.2,387.3z"/>
	</g>
</g>
</svg>
